<svg id="visual" viewBox="0 0 960 300" width="960" height="300" xmlns="http://www.w3.org/2000/svg" xmlns:xlink="http://www.w3.org/1999/xlink" version="1.1"><path d="M0 193L22.8 198C45.7 203 91.3 213 137 212.5C182.7 212 228.3 201 274 198.2C319.7 195.3 365.3 200.7 411.2 204.8C457 209 503 212 548.8 208.5C594.7 205 640.3 195 686 192.5C731.7 190 777.3 195 823 199.7C868.7 204.3 914.3 208.7 937.2 210.8L960 213L960 301L937.2 301C914.3 301 868.7 301 823 301C777.3 301 731.7 301 686 301C640.3 301 594.7 301 548.8 301C503 301 457 301 411.2 301C365.3 301 319.7 301 274 301C228.3 301 182.7 301 137 301C91.3 301 45.7 301 22.8 301L0 301Z" fill="#7b2cbf"></path><path d="M0 210L22.8 210.2C45.7 210.3 91.3 210.7 137 209.2C182.7 207.7 228.3 204.3 274 208.7C319.7 213 365.3 225 411.2 226.8C457 228.7 503 220.3 548.8 217.2C594.7 214 640.3 216 686 214.8C731.7 213.7 777.3 209.3 823 206C868.7 202.7 914.3 200.3 937.2 199.2L960 198L960 301L937.2 301C914.3 301 868.7 301 823 301C777.3 301 731.7 301 686 301C640.3 301 594.7 301 548.8 301C503 301 457 301 411.2 301C365.3 301 319.7 301 274 301C228.3 301 182.7 301 137 301C91.3 301 45.7 301 22.8 301L0 301Z" fill="#8e41cf"></path><path d="M0 228L22.8 226.8C45.7 225.7 91.3 223.3 137 227.8C182.7 232.3 228.3 243.7 274 245C319.7 246.3 365.3 237.7 411.2 235C457 232.3 503 235.7 548.8 235C594.7 234.3 640.3 229.7 686 227.2C731.7 224.7 777.3 224.3 823 229.3C868.7 234.3 914.3 244.7 937.2 249.8L960 255L960 301L937.2 301C914.3 301 868.7 301 823 301C777.3 301 731.7 301 686 301C640.3 301 594.7 301 548.8 301C503 301 457 301 411.2 301C365.3 301 319.7 301 274 301C228.3 301 182.7 301 137 301C91.3 301 45.7 301 22.8 301L0 301Z" fill="#a155df"></path><path d="M0 247L22.8 246.7C45.7 246.3 91.3 245.7 137 249.2C182.7 252.7 228.3 260.3 274 264.5C319.7 268.7 365.3 269.3 411.2 269.7C457 270 503 270 548.8 266.2C594.7 262.3 640.3 254.7 686 254.8C731.7 255 777.3 263 823 264.3C868.7 265.7 914.3 260.3 937.2 257.7L960 255L960 301L937.2 301C914.3 301 868.7 301 823 301C777.3 301 731.7 301 686 301C640.3 301 594.7 301 548.8 301C503 301 457 301 411.2 301C365.3 301 319.7 301 274 301C228.3 301 182.7 301 137 301C91.3 301 45.7 301 22.8 301L0 301Z" fill="#b469ef"></path><path d="M0 282L22.8 281.5C45.7 281 91.3 280 137 278.5C182.7 277 228.3 275 274 276.2C319.7 277.3 365.3 281.7 411.2 283C457 284.3 503 282.7 548.8 282.3C594.7 282 640.3 283 686 282.8C731.7 282.7 777.3 281.3 823 280.2C868.7 279 914.3 278 937.2 277.5L960 277L960 301L937.2 301C914.3 301 868.7 301 823 301C777.3 301 731.7 301 686 301C640.3 301 594.7 301 548.8 301C503 301 457 301 411.2 301C365.3 301 319.7 301 274 301C228.3 301 182.7 301 137 301C91.3 301 45.7 301 22.8 301L0 301Z" fill="#c77dff"></path></svg>