<svg id="visual" viewBox="0 0 960 300" width="960" height="300" xmlns="http://www.w3.org/2000/svg" xmlns:xlink="http://www.w3.org/1999/xlink" version="1.1"><path d="M0 202L22.8 210.2C45.7 218.3 91.3 234.7 137 237.8C182.7 241 228.3 231 274 231C319.7 231 365.3 241 411.2 240C457 239 503 227 548.8 218.2C594.7 209.3 640.3 203.7 686 204.8C731.7 206 777.3 214 823 214.5C868.7 215 914.3 208 937.2 204.5L960 201L960 301L937.2 301C914.3 301 868.7 301 823 301C777.3 301 731.7 301 686 301C640.3 301 594.7 301 548.8 301C503 301 457 301 411.2 301C365.3 301 319.7 301 274 301C228.3 301 182.7 301 137 301C91.3 301 45.7 301 22.8 301L0 301Z" fill="#C77DFF" stroke-linecap="round" stroke-linejoin="miter"></path></svg>