<svg id="visual" viewBox="0 0 960 300" width="960" height="300" xmlns="http://www.w3.org/2000/svg" xmlns:xlink="http://www.w3.org/1999/xlink" version="1.1"><rect x="0" y="0" width="960" height="300" fill="#10002B"></rect><path d="M0 176L22.8 181.5C45.7 187 91.3 198 137 200C182.7 202 228.3 195 274 196.8C319.7 198.7 365.3 209.3 411.2 210.7C457 212 503 204 548.8 202.8C594.7 201.7 640.3 207.3 686 208C731.7 208.7 777.3 204.3 823 205.8C868.7 207.3 914.3 214.7 937.2 218.3L960 222L960 301L937.2 301C914.3 301 868.7 301 823 301C777.3 301 731.7 301 686 301C640.3 301 594.7 301 548.8 301C503 301 457 301 411.2 301C365.3 301 319.7 301 274 301C228.3 301 182.7 301 137 301C91.3 301 45.7 301 22.8 301L0 301Z" fill="#7b2cbf"></path><path d="M0 225L22.8 225.7C45.7 226.3 91.3 227.7 137 225.3C182.7 223 228.3 217 274 213.8C319.7 210.7 365.3 210.3 411.2 213.3C457 216.3 503 222.7 548.8 225.3C594.7 228 640.3 227 686 222.8C731.7 218.7 777.3 211.3 823 212.7C868.7 214 914.3 224 937.2 229L960 234L960 301L937.2 301C914.3 301 868.7 301 823 301C777.3 301 731.7 301 686 301C640.3 301 594.7 301 548.8 301C503 301 457 301 411.2 301C365.3 301 319.7 301 274 301C228.3 301 182.7 301 137 301C91.3 301 45.7 301 22.8 301L0 301Z" fill="#8e41cf"></path><path d="M0 251L22.8 247.8C45.7 244.7 91.3 238.3 137 238.2C182.7 238 228.3 244 274 243.2C319.7 242.3 365.3 234.7 411.2 230.7C457 226.7 503 226.3 548.8 227C594.7 227.7 640.3 229.3 686 232.8C731.7 236.3 777.3 241.7 823 239.7C868.7 237.7 914.3 228.3 937.2 223.7L960 219L960 301L937.2 301C914.3 301 868.7 301 823 301C777.3 301 731.7 301 686 301C640.3 301 594.7 301 548.8 301C503 301 457 301 411.2 301C365.3 301 319.7 301 274 301C228.3 301 182.7 301 137 301C91.3 301 45.7 301 22.8 301L0 301Z" fill="#a155df"></path><path d="M0 259L22.8 259.3C45.7 259.7 91.3 260.3 137 258.7C182.7 257 228.3 253 274 251.2C319.7 249.3 365.3 249.7 411.2 251.2C457 252.7 503 255.3 548.8 258C594.7 260.7 640.3 263.3 686 263.8C731.7 264.3 777.3 262.7 823 259.5C868.7 256.3 914.3 251.7 937.2 249.3L960 247L960 301L937.2 301C914.3 301 868.7 301 823 301C777.3 301 731.7 301 686 301C640.3 301 594.7 301 548.8 301C503 301 457 301 411.2 301C365.3 301 319.7 301 274 301C228.3 301 182.7 301 137 301C91.3 301 45.7 301 22.8 301L0 301Z" fill="#b469ef"></path><path d="M0 283L22.8 280.5C45.7 278 91.3 273 137 273.2C182.7 273.3 228.3 278.7 274 281.3C319.7 284 365.3 284 411.2 282.7C457 281.3 503 278.7 548.8 277.5C594.7 276.3 640.3 276.7 686 278.2C731.7 279.7 777.3 282.3 823 280C868.7 277.7 914.3 270.3 937.2 266.7L960 263L960 301L937.2 301C914.3 301 868.7 301 823 301C777.3 301 731.7 301 686 301C640.3 301 594.7 301 548.8 301C503 301 457 301 411.2 301C365.3 301 319.7 301 274 301C228.3 301 182.7 301 137 301C91.3 301 45.7 301 22.8 301L0 301Z" fill="#c77dff"></path></svg>