<svg id="visual" viewBox="0 0 960 300" width="960" height="300" xmlns="http://www.w3.org/2000/svg" xmlns:xlink="http://www.w3.org/1999/xlink" version="1.1"><rect x="0" y="0" width="960" height="300" fill="#10002B"></rect><path d="M0 104L22.8 95.7C45.7 87.3 91.3 70.7 137 61.3C182.7 52 228.3 50 274 54.5C319.7 59 365.3 70 411.2 79.5C457 89 503 97 548.8 97.3C594.7 97.7 640.3 90.3 686 80C731.7 69.7 777.3 56.3 823 57.2C868.7 58 914.3 73 937.2 80.5L960 88L960 0L937.2 0C914.3 0 868.7 0 823 0C777.3 0 731.7 0 686 0C640.3 0 594.7 0 548.8 0C503 0 457 0 411.2 0C365.3 0 319.7 0 274 0C228.3 0 182.7 0 137 0C91.3 0 45.7 0 22.8 0L0 0Z" fill="#C77DFF" stroke-linecap="round" stroke-linejoin="miter"></path></svg>