<svg id="visual" viewBox="0 0 960 300" width="960" height="300" xmlns="http://www.w3.org/2000/svg" xmlns:xlink="http://www.w3.org/1999/xlink" version="1.1"><path d="M0 105L22.8 100.2C45.7 95.3 91.3 85.7 137 83.3C182.7 81 228.3 86 274 88C319.7 90 365.3 89 411.2 89.5C457 90 503 92 548.8 93.5C594.7 95 640.3 96 686 93C731.7 90 777.3 83 823 84.7C868.7 86.3 914.3 96.7 937.2 101.8L960 107L960 0L937.2 0C914.3 0 868.7 0 823 0C777.3 0 731.7 0 686 0C640.3 0 594.7 0 548.8 0C503 0 457 0 411.2 0C365.3 0 319.7 0 274 0C228.3 0 182.7 0 137 0C91.3 0 45.7 0 22.8 0L0 0Z" fill="#7b2cbf"></path><path d="M0 87L22.8 84C45.7 81 91.3 75 137 73.7C182.7 72.3 228.3 75.7 274 75.2C319.7 74.7 365.3 70.3 411.2 68C457 65.7 503 65.3 548.8 67C594.7 68.7 640.3 72.3 686 76.3C731.7 80.3 777.3 84.7 823 84.7C868.7 84.7 914.3 80.3 937.2 78.2L960 76L960 0L937.2 0C914.3 0 868.7 0 823 0C777.3 0 731.7 0 686 0C640.3 0 594.7 0 548.8 0C503 0 457 0 411.2 0C365.3 0 319.7 0 274 0C228.3 0 182.7 0 137 0C91.3 0 45.7 0 22.8 0L0 0Z" fill="#8e41cf"></path><path d="M0 56L22.8 56C45.7 56 91.3 56 137 57.7C182.7 59.3 228.3 62.7 274 66.5C319.7 70.3 365.3 74.7 411.2 76.3C457 78 503 77 548.8 75.2C594.7 73.3 640.3 70.7 686 67.7C731.7 64.7 777.3 61.3 823 57.7C868.7 54 914.3 50 937.2 48L960 46L960 0L937.2 0C914.3 0 868.7 0 823 0C777.3 0 731.7 0 686 0C640.3 0 594.7 0 548.8 0C503 0 457 0 411.2 0C365.3 0 319.7 0 274 0C228.3 0 182.7 0 137 0C91.3 0 45.7 0 22.8 0L0 0Z" fill="#a155df"></path><path d="M0 54L22.8 53.5C45.7 53 91.3 52 137 48.8C182.7 45.7 228.3 40.3 274 37.3C319.7 34.3 365.3 33.7 411.2 35.2C457 36.7 503 40.3 548.8 42.2C594.7 44 640.3 44 686 43.2C731.7 42.3 777.3 40.7 823 42C868.7 43.3 914.3 47.7 937.2 49.8L960 52L960 0L937.2 0C914.3 0 868.7 0 823 0C777.3 0 731.7 0 686 0C640.3 0 594.7 0 548.8 0C503 0 457 0 411.2 0C365.3 0 319.7 0 274 0C228.3 0 182.7 0 137 0C91.3 0 45.7 0 22.8 0L0 0Z" fill="#b469ef"></path><path d="M0 14L22.8 13.8C45.7 13.7 91.3 13.3 137 16.5C182.7 19.7 228.3 26.3 274 26.2C319.7 26 365.3 19 411.2 15.8C457 12.7 503 13.3 548.8 15.8C594.7 18.3 640.3 22.7 686 24.7C731.7 26.7 777.3 26.3 823 27.2C868.7 28 914.3 30 937.2 31L960 32L960 0L937.2 0C914.3 0 868.7 0 823 0C777.3 0 731.7 0 686 0C640.3 0 594.7 0 548.8 0C503 0 457 0 411.2 0C365.3 0 319.7 0 274 0C228.3 0 182.7 0 137 0C91.3 0 45.7 0 22.8 0L0 0Z" fill="#c77dff"></path></svg>