<svg id="visual" viewBox="0 0 960 300" width="960" height="300" xmlns="http://www.w3.org/2000/svg" xmlns:xlink="http://www.w3.org/1999/xlink" version="1.1"><path d="M0 181L22.8 179.8C45.7 178.7 91.3 176.3 137 176.8C182.7 177.3 228.3 180.7 274 188.7C319.7 196.7 365.3 209.3 411.2 210.7C457 212 503 202 548.8 200.5C594.7 199 640.3 206 686 208.7C731.7 211.3 777.3 209.7 823 203.5C868.7 197.3 914.3 186.7 937.2 181.3L960 176L960 301L937.2 301C914.3 301 868.7 301 823 301C777.3 301 731.7 301 686 301C640.3 301 594.7 301 548.8 301C503 301 457 301 411.2 301C365.3 301 319.7 301 274 301C228.3 301 182.7 301 137 301C91.3 301 45.7 301 22.8 301L0 301Z" fill="#7b2cbf"></path><path d="M0 215L22.8 217.2C45.7 219.3 91.3 223.7 137 225.2C182.7 226.7 228.3 225.3 274 224.5C319.7 223.7 365.3 223.3 411.2 220.7C457 218 503 213 548.8 213.3C594.7 213.7 640.3 219.3 686 223.7C731.7 228 777.3 231 823 226.8C868.7 222.7 914.3 211.3 937.2 205.7L960 200L960 301L937.2 301C914.3 301 868.7 301 823 301C777.3 301 731.7 301 686 301C640.3 301 594.7 301 548.8 301C503 301 457 301 411.2 301C365.3 301 319.7 301 274 301C228.3 301 182.7 301 137 301C91.3 301 45.7 301 22.8 301L0 301Z" fill="#8e41cf"></path><path d="M0 236L22.8 234.3C45.7 232.7 91.3 229.3 137 228.3C182.7 227.3 228.3 228.7 274 231.2C319.7 233.7 365.3 237.3 411.2 240.5C457 243.7 503 246.3 548.8 244.5C594.7 242.7 640.3 236.3 686 233.8C731.7 231.3 777.3 232.7 823 230.8C868.7 229 914.3 224 937.2 221.5L960 219L960 301L937.2 301C914.3 301 868.7 301 823 301C777.3 301 731.7 301 686 301C640.3 301 594.7 301 548.8 301C503 301 457 301 411.2 301C365.3 301 319.7 301 274 301C228.3 301 182.7 301 137 301C91.3 301 45.7 301 22.8 301L0 301Z" fill="#a155df"></path><path d="M0 242L22.8 246.3C45.7 250.7 91.3 259.3 137 263.5C182.7 267.7 228.3 267.3 274 266.2C319.7 265 365.3 263 411.2 259.7C457 256.3 503 251.7 548.8 248.7C594.7 245.7 640.3 244.3 686 247.2C731.7 250 777.3 257 823 257.8C868.7 258.7 914.3 253.3 937.2 250.7L960 248L960 301L937.2 301C914.3 301 868.7 301 823 301C777.3 301 731.7 301 686 301C640.3 301 594.7 301 548.8 301C503 301 457 301 411.2 301C365.3 301 319.7 301 274 301C228.3 301 182.7 301 137 301C91.3 301 45.7 301 22.8 301L0 301Z" fill="#b469ef"></path><path d="M0 262L22.8 263.8C45.7 265.7 91.3 269.3 137 273.2C182.7 277 228.3 281 274 280.7C319.7 280.3 365.3 275.7 411.2 274C457 272.3 503 273.7 548.8 274C594.7 274.3 640.3 273.7 686 273.7C731.7 273.7 777.3 274.3 823 273.5C868.7 272.7 914.3 270.3 937.2 269.2L960 268L960 301L937.2 301C914.3 301 868.7 301 823 301C777.3 301 731.7 301 686 301C640.3 301 594.7 301 548.8 301C503 301 457 301 411.2 301C365.3 301 319.7 301 274 301C228.3 301 182.7 301 137 301C91.3 301 45.7 301 22.8 301L0 301Z" fill="#c77dff"></path></svg>