<svg id="visual" viewBox="0 0 960 300" width="960" height="300" xmlns="http://www.w3.org/2000/svg" xmlns:xlink="http://www.w3.org/1999/xlink" version="1.1"><path d="M0 96L22.8 87.8C45.7 79.7 91.3 63.3 137 60.2C182.7 57 228.3 67 274 67C319.7 67 365.3 57 411.2 58C457 59 503 71 548.8 79.8C594.7 88.7 640.3 94.3 686 93.2C731.7 92 777.3 84 823 83.5C868.7 83 914.3 90 937.2 93.5L960 97L960 0L937.2 0C914.3 0 868.7 0 823 0C777.3 0 731.7 0 686 0C640.3 0 594.7 0 548.8 0C503 0 457 0 411.2 0C365.3 0 319.7 0 274 0C228.3 0 182.7 0 137 0C91.3 0 45.7 0 22.8 0L0 0Z" fill="#C77DFF" stroke-linecap="round" stroke-linejoin="miter"></path></svg>