<svg id="visual" viewBox="0 0 960 300" width="960" height="300" xmlns="http://www.w3.org/2000/svg" xmlns:xlink="http://www.w3.org/1999/xlink" version="1.1"><path d="M0 241L22.8 243.7C45.7 246.3 91.3 251.7 137 253.3C182.7 255 228.3 253 274 248.7C319.7 244.3 365.3 237.7 411.2 232.5C457 227.3 503 223.7 548.8 225C594.7 226.3 640.3 232.7 686 236.5C731.7 240.3 777.3 241.7 823 239.3C868.7 237 914.3 231 937.2 228L960 225L960 301L937.2 301C914.3 301 868.7 301 823 301C777.3 301 731.7 301 686 301C640.3 301 594.7 301 548.8 301C503 301 457 301 411.2 301C365.3 301 319.7 301 274 301C228.3 301 182.7 301 137 301C91.3 301 45.7 301 22.8 301L0 301Z" fill="#C77DFF" stroke-linecap="round" stroke-linejoin="miter"></path></svg>