<svg id="visual" viewBox="0 0 960 300" width="960" height="300" xmlns="http://www.w3.org/2000/svg" xmlns:xlink="http://www.w3.org/1999/xlink" version="1.1"><path d="M0 46L22.8 51.8C45.7 57.7 91.3 69.3 137 79.2C182.7 89 228.3 97 274 99C319.7 101 365.3 97 411.2 87.8C457 78.7 503 64.3 548.8 66.8C594.7 69.3 640.3 88.7 686 90.3C731.7 92 777.3 76 823 74.7C868.7 73.3 914.3 86.7 937.2 93.3L960 100L960 0L937.2 0C914.3 0 868.7 0 823 0C777.3 0 731.7 0 686 0C640.3 0 594.7 0 548.8 0C503 0 457 0 411.2 0C365.3 0 319.7 0 274 0C228.3 0 182.7 0 137 0C91.3 0 45.7 0 22.8 0L0 0Z" fill="#C77DFF" stroke-linecap="round" stroke-linejoin="miter"></path></svg>