<svg id="visual" viewBox="0 0 960 300" width="960" height="300" xmlns="http://www.w3.org/2000/svg" xmlns:xlink="http://www.w3.org/1999/xlink" version="1.1"><path d="M0 65L22.8 67.8C45.7 70.7 91.3 76.3 137 81.8C182.7 87.3 228.3 92.7 274 90C319.7 87.3 365.3 76.7 411.2 78C457 79.3 503 92.7 548.8 96.3C594.7 100 640.3 94 686 82.7C731.7 71.3 777.3 54.7 823 49.5C868.7 44.3 914.3 50.7 937.2 53.8L960 57L960 0L937.2 0C914.3 0 868.7 0 823 0C777.3 0 731.7 0 686 0C640.3 0 594.7 0 548.8 0C503 0 457 0 411.2 0C365.3 0 319.7 0 274 0C228.3 0 182.7 0 137 0C91.3 0 45.7 0 22.8 0L0 0Z" fill="#C77DFF" stroke-linecap="round" stroke-linejoin="miter"></path></svg>