<svg id="visual" viewBox="0 0 960 300" width="960" height="300" xmlns="http://www.w3.org/2000/svg" xmlns:xlink="http://www.w3.org/1999/xlink" version="1.1"><path d="M0 76L22.8 81.2C45.7 86.3 91.3 96.7 137 97.2C182.7 97.7 228.3 88.3 274 84C319.7 79.7 365.3 80.3 411.2 82C457 83.7 503 86.3 548.8 85.7C594.7 85 640.3 81 686 86.3C731.7 91.7 777.3 106.3 823 111.2C868.7 116 914.3 111 937.2 108.5L960 106L960 0L937.2 0C914.3 0 868.7 0 823 0C777.3 0 731.7 0 686 0C640.3 0 594.7 0 548.8 0C503 0 457 0 411.2 0C365.3 0 319.7 0 274 0C228.3 0 182.7 0 137 0C91.3 0 45.7 0 22.8 0L0 0Z" fill="#7b2cbf"></path><path d="M0 90L22.8 86C45.7 82 91.3 74 137 74.3C182.7 74.7 228.3 83.3 274 85.5C319.7 87.7 365.3 83.3 411.2 78C457 72.7 503 66.3 548.8 68.8C594.7 71.3 640.3 82.7 686 84C731.7 85.3 777.3 76.7 823 72.7C868.7 68.7 914.3 69.3 937.2 69.7L960 70L960 0L937.2 0C914.3 0 868.7 0 823 0C777.3 0 731.7 0 686 0C640.3 0 594.7 0 548.8 0C503 0 457 0 411.2 0C365.3 0 319.7 0 274 0C228.3 0 182.7 0 137 0C91.3 0 45.7 0 22.8 0L0 0Z" fill="#8e41cf"></path><path d="M0 53L22.8 55.5C45.7 58 91.3 63 137 63C182.7 63 228.3 58 274 58C319.7 58 365.3 63 411.2 64.5C457 66 503 64 548.8 61C594.7 58 640.3 54 686 54C731.7 54 777.3 58 823 57.8C868.7 57.7 914.3 53.3 937.2 51.2L960 49L960 0L937.2 0C914.3 0 868.7 0 823 0C777.3 0 731.7 0 686 0C640.3 0 594.7 0 548.8 0C503 0 457 0 411.2 0C365.3 0 319.7 0 274 0C228.3 0 182.7 0 137 0C91.3 0 45.7 0 22.8 0L0 0Z" fill="#a155df"></path><path d="M0 57L22.8 54.7C45.7 52.3 91.3 47.7 137 46.5C182.7 45.3 228.3 47.7 274 45.3C319.7 43 365.3 36 411.2 32.7C457 29.3 503 29.7 548.8 31.5C594.7 33.3 640.3 36.7 686 37.3C731.7 38 777.3 36 823 37C868.7 38 914.3 42 937.2 44L960 46L960 0L937.2 0C914.3 0 868.7 0 823 0C777.3 0 731.7 0 686 0C640.3 0 594.7 0 548.8 0C503 0 457 0 411.2 0C365.3 0 319.7 0 274 0C228.3 0 182.7 0 137 0C91.3 0 45.7 0 22.8 0L0 0Z" fill="#b469ef"></path><path d="M0 13L22.8 15.3C45.7 17.7 91.3 22.3 137 25.8C182.7 29.3 228.3 31.7 274 29.7C319.7 27.7 365.3 21.3 411.2 19C457 16.7 503 18.3 548.8 18.8C594.7 19.3 640.3 18.7 686 18.3C731.7 18 777.3 18 823 18.2C868.7 18.3 914.3 18.7 937.2 18.8L960 19L960 0L937.2 0C914.3 0 868.7 0 823 0C777.3 0 731.7 0 686 0C640.3 0 594.7 0 548.8 0C503 0 457 0 411.2 0C365.3 0 319.7 0 274 0C228.3 0 182.7 0 137 0C91.3 0 45.7 0 22.8 0L0 0Z" fill="#c77dff"></path></svg>